# xmcd
# 
# Track frame offsets:
#     150
#     30611
#     66775
#     101649
#     128603
#     161102
#     192859
# 
# Disc length: 2810
# 
# Revision: 0
# Processed by: cddbd v1.5.2PL0 Copyright (c) Steve Scherf et al.
# Submitted via: BonkEnc v1.0.5
# 
DISCID=580af807
DTITLE=David Guetta ft. Estelle - Maxi Remixes
DYEAR=2009
DGENRE=House
TTITLE0=One Love [Extended]
TTITLE1=One Love [Chuckie and Fatman Scoop Remix]
TTITLE2=One Love [Avicci Remix]
TTITLE3=One Love [Calvin Harris Mix]
TTITLE4=One Love [Arias Remix]
TTITLE5=One Love [Chocolate Puma Remix]
TTITLE6=One Love [Original Version]
EXTD=
EXTT0=
EXTT1=
EXTT2=
EXTT3=
EXTT4=
EXTT5=
EXTT6=
PLAYORDER=
